<?xml version="1.0" encoding="UTF-8" standalone="no"?>
<!-- Generator: Adobe Illustrator 18.1.1, SVG Export Plug-In . SVG Version: 6.00 Build 0)  -->

<svg
   xmlns:dc="http://purl.org/dc/elements/1.1/"
   xmlns:cc="http://creativecommons.org/ns#"
   xmlns:rdf="http://www.w3.org/1999/02/22-rdf-syntax-ns#"
   xmlns:svg="http://www.w3.org/2000/svg"
   xmlns="http://www.w3.org/2000/svg"
   xmlns:sodipodi="http://sodipodi.sourceforge.net/DTD/sodipodi-0.dtd"
   xmlns:inkscape="http://www.inkscape.org/namespaces/inkscape"
   version="1.1"
   id="Creative_Commons_ShareAlike"
   x="0px"
   y="0px"
   viewBox="0 0 20 20"
   enable-background="new 0 0 20 20"
   xml:space="preserve"
   inkscape:version="0.91 r13725"
   sodipodi:docname="creative-commons-sharealike.svg"><metadata
     id="metadata5426"><rdf:RDF><cc:Work
         rdf:about=""><dc:format>image/svg+xml</dc:format><dc:type
           rdf:resource="http://purl.org/dc/dcmitype/StillImage" /></cc:Work></rdf:RDF></metadata><defs
     id="defs5424" /><sodipodi:namedview
     pagecolor="#ffffff"
     bordercolor="#666666"
     borderopacity="1"
     objecttolerance="10"
     gridtolerance="10"
     guidetolerance="10"
     inkscape:pageopacity="0"
     inkscape:pageshadow="2"
     inkscape:window-width="1847"
     inkscape:window-height="1173"
     id="namedview5422"
     showgrid="false"
     inkscape:zoom="11.8"
     inkscape:cx="-21.355932"
     inkscape:cy="10"
     inkscape:window-x="73"
     inkscape:window-y="27"
     inkscape:window-maximized="1"
     inkscape:current-layer="Creative_Commons_ShareAlike" /><path
     d="M16.8,3.2C15,1.3,12.7,0.4,10,0.4c-2.7,0-4.9,0.9-6.8,2.8C1.3,5.1,0.4,7.4,0.4,10s0.9,4.9,2.8,6.8c1.9,1.9,4.1,2.8,6.8,2.8  c2.6,0,4.9-1,6.9-2.9c1.8-1.8,2.7-4.1,2.7-6.7S18.7,5,16.8,3.2z M15.6,15.5c-1.6,1.6-3.5,2.4-5.6,2.4c-2.1,0-4-0.8-5.6-2.3  C2.9,14,2.1,12.1,2.1,10s0.8-4,2.4-5.6C6,2.9,7.8,2.1,10,2.1s4,0.8,5.6,2.3c1.5,1.5,2.3,3.4,2.3,5.6C17.9,12.2,17.1,14,15.6,15.5z   M14.9,10.1c0,2.9-2,5.1-5,5.1c-2.1,0-3.9-1.3-4.2-3.8h2.4c0.1,1.3,0.9,1.7,2.1,1.7c1.4,0,2.3-1.3,2.3-3.2c0-2-0.8-3.1-2.2-3.1  c-1.1,0-2,0.4-2.2,1.7l0.7,0l-1.9,1.9L5,8.6l0.8,0c0.4-2.4,2.1-3.7,4.2-3.7C13,4.9,14.9,7.2,14.9,10.1z"
     id="path5420"
     style="fill:#3e3e3e;fill-opacity:1" /></svg>