<?xml version="1.0" encoding="UTF-8" standalone="no"?>
<!-- Generator: Adobe Illustrator 18.1.1, SVG Export Plug-In . SVG Version: 6.00 Build 0)  -->

<svg
   xmlns:dc="http://purl.org/dc/elements/1.1/"
   xmlns:cc="http://creativecommons.org/ns#"
   xmlns:rdf="http://www.w3.org/1999/02/22-rdf-syntax-ns#"
   xmlns:svg="http://www.w3.org/2000/svg"
   xmlns="http://www.w3.org/2000/svg"
   xmlns:sodipodi="http://sodipodi.sourceforge.net/DTD/sodipodi-0.dtd"
   xmlns:inkscape="http://www.inkscape.org/namespaces/inkscape"
   version="1.1"
   id="Creative_Commons_NonCommercial_US"
   x="0px"
   y="0px"
   viewBox="0 0 20 20"
   enable-background="new 0 0 20 20"
   xml:space="preserve"
   inkscape:version="0.91 r13725"
   sodipodi:docname="creative-commons-noncommercial-us.svg"><metadata
     id="metadata4833"><rdf:RDF><cc:Work
         rdf:about=""><dc:format>image/svg+xml</dc:format><dc:type
           rdf:resource="http://purl.org/dc/dcmitype/StillImage" /></cc:Work></rdf:RDF></metadata><defs
     id="defs4831" /><sodipodi:namedview
     pagecolor="#ffffff"
     bordercolor="#666666"
     borderopacity="1"
     objecttolerance="10"
     gridtolerance="10"
     guidetolerance="10"
     inkscape:pageopacity="0"
     inkscape:pageshadow="2"
     inkscape:window-width="1847"
     inkscape:window-height="1173"
     id="namedview4829"
     showgrid="false"
     inkscape:zoom="11.8"
     inkscape:cx="-21.355932"
     inkscape:cy="10"
     inkscape:window-x="73"
     inkscape:window-y="27"
     inkscape:window-maximized="1"
     inkscape:current-layer="Creative_Commons_NonCommercial_US" /><path
     d="M16.8,3.2C15,1.3,12.7,0.4,10,0.4c-2.7,0-4.9,0.9-6.8,2.8C1.3,5.1,0.4,7.4,0.4,10s0.9,4.9,2.8,6.8c1.9,1.9,4.1,2.8,6.8,2.8  c2.6,0,4.9-1,6.9-2.9c1.8-1.8,2.7-4.1,2.7-6.7S18.7,5,16.8,3.2z M15.6,15.5c-1.6,1.6-3.5,2.4-5.6,2.4c-2.1,0-4-0.8-5.6-2.3  C2.9,14,2.1,12.1,2.1,10c0-0.9,0.1-1.8,0.4-2.6l4.9,2.2c0.5,0.2,1,0.4,1.5,0.7l1.1,0.5l0.9,0.4c0.2,0.1,0.3,0.3,0.3,0.6  c0,0.7-0.6,1-1.2,1c-0.9,0-1.5-0.3-2.1-0.9l-1.3,1.3c0.8,0.7,1.8,1.1,2.9,1.1v1.5h1.1v-1.5c1.3-0.1,2.4-0.9,2.6-2.1l3.6,1.6  C16.6,14.4,16.1,15,15.6,15.5z M12.7,9.9c-0.5-0.2-1-0.4-1.5-0.7l-0.8-0.4L9.1,8.3C9.1,8.2,9,8.1,9,8c0-0.6,0.7-0.7,1.2-0.7  c0.6,0,1.2,0.2,1.6,0.6l1.3-1.3c-0.8-0.6-1.7-0.8-2.4-0.9V4.2H9.6v1.5C8.4,5.7,7.4,6.3,7.1,7.4L3.4,5.7c0.3-0.5,0.7-0.9,1.1-1.3  C6,2.9,7.8,2.1,10,2.1c2.2,0,4,0.8,5.6,2.3c1.5,1.5,2.3,3.4,2.3,5.6c0,0.7-0.1,1.4-0.2,2.1L12.7,9.9z"
     id="path4827"
     style="fill:#3e3e3e;fill-opacity:1" /></svg>